<svg id="visual" viewBox="0 0 960 540" width="960" height="540" xmlns="http://www.w3.org/2000/svg" xmlns:xlink="http://www.w3.org/1999/xlink" version="1.1"><rect x="0" y="0" width="960" height="540" fill="#001220"></rect><defs><linearGradient id="grad1_0" x1="43.8%" y1="0%" x2="100%" y2="100%"><stop offset="14.444444444444446%" stop-color="#fa7268" stop-opacity="1"></stop><stop offset="85.55555555555554%" stop-color="#fa7268" stop-opacity="1"></stop></linearGradient></defs><defs><linearGradient id="grad1_1" x1="43.8%" y1="0%" x2="100%" y2="100%"><stop offset="14.444444444444446%" stop-color="#fa7268" stop-opacity="1"></stop><stop offset="85.55555555555554%" stop-color="#a54a79" stop-opacity="1"></stop></linearGradient></defs><defs><linearGradient id="grad1_2" x1="43.8%" y1="0%" x2="100%" y2="100%"><stop offset="14.444444444444446%" stop-color="#41345d" stop-opacity="1"></stop><stop offset="85.55555555555554%" stop-color="#a54a79" stop-opacity="1"></stop></linearGradient></defs><defs><linearGradient id="grad1_3" x1="43.8%" y1="0%" x2="100%" y2="100%"><stop offset="14.444444444444446%" stop-color="#41345d" stop-opacity="1"></stop><stop offset="85.55555555555554%" stop-color="#001220" stop-opacity="1"></stop></linearGradient></defs><defs><linearGradient id="grad2_0" x1="0%" y1="0%" x2="56.3%" y2="100%"><stop offset="14.444444444444446%" stop-color="#fa7268" stop-opacity="1"></stop><stop offset="85.55555555555554%" stop-color="#fa7268" stop-opacity="1"></stop></linearGradient></defs><defs><linearGradient id="grad2_1" x1="0%" y1="0%" x2="56.3%" y2="100%"><stop offset="14.444444444444446%" stop-color="#a54a79" stop-opacity="1"></stop><stop offset="85.55555555555554%" stop-color="#fa7268" stop-opacity="1"></stop></linearGradient></defs><defs><linearGradient id="grad2_2" x1="0%" y1="0%" x2="56.3%" y2="100%"><stop offset="14.444444444444446%" stop-color="#a54a79" stop-opacity="1"></stop><stop offset="85.55555555555554%" stop-color="#41345d" stop-opacity="1"></stop></linearGradient></defs><defs><linearGradient id="grad2_3" x1="0%" y1="0%" x2="56.3%" y2="100%"><stop offset="14.444444444444446%" stop-color="#001220" stop-opacity="1"></stop><stop offset="85.55555555555554%" stop-color="#41345d" stop-opacity="1"></stop></linearGradient></defs><g transform="translate(960, 0)"><path d="M0 459C-37 422.1 -74.1 385.3 -122.1 375.7C-170 366.1 -228.9 383.8 -265.1 364.9C-301.2 346 -314.7 290.5 -343 249.2C-371.4 208 -414.7 181 -436.5 141.8C-458.4 102.7 -458.7 51.3 -459 0L0 0Z" fill="#1a2440"></path><path d="M0 344.3C-27.8 316.6 -55.6 288.9 -91.5 281.8C-127.5 274.6 -171.7 287.8 -198.8 273.6C-225.9 259.5 -236 217.8 -257.3 186.9C-278.5 156 -311 135.7 -327.4 106.4C-343.8 77 -344 38.5 -344.2 0L0 0Z" fill="#723f71"></path><path d="M0 229.5C-18.5 211.1 -37 192.6 -61 187.8C-85 183 -114.5 191.9 -132.5 182.4C-150.6 173 -157.3 145.2 -171.5 124.6C-185.7 104 -207.4 90.5 -218.3 70.9C-229.2 51.3 -229.3 25.7 -229.5 0L0 0Z" fill="#d45975"></path><path d="M0 114.8C-9.3 105.5 -18.5 96.3 -30.5 93.9C-42.5 91.5 -57.2 95.9 -66.3 91.2C-75.3 86.5 -78.7 72.6 -85.8 62.3C-92.8 52 -103.7 45.2 -109.1 35.5C-114.6 25.7 -114.7 12.8 -114.7 0L0 0Z" fill="#fa7268"></path></g><g transform="translate(0, 540)"><path d="M0 -459C38.7 -427.2 77.5 -395.4 124.8 -384.2C172.2 -373.1 228.3 -382.6 261.6 -360C294.9 -337.4 305.5 -282.7 334.9 -243.3C364.4 -203.9 412.7 -179.8 436.5 -141.8C460.4 -103.8 459.7 -51.9 459 0L0 0Z" fill="#1a2440"></path><path d="M0 -344.2C29 -320.4 58.1 -296.5 93.6 -288.2C129.2 -279.8 171.2 -286.9 196.2 -270C221.2 -253.1 229.1 -212.1 251.2 -182.5C273.3 -153 309.5 -134.9 327.4 -106.4C345.3 -77.9 344.8 -38.9 344.3 0L0 0Z" fill="#723f71"></path><path d="M0 -229.5C19.4 -213.6 38.7 -197.7 62.4 -192.1C86.1 -186.5 114.1 -191.3 130.8 -180C147.4 -168.7 152.7 -141.4 167.5 -121.7C182.2 -102 206.4 -89.9 218.3 -70.9C230.2 -51.9 229.8 -26 229.5 0L0 0Z" fill="#d45975"></path><path d="M0 -114.7C9.7 -106.8 19.4 -98.8 31.2 -96.1C43.1 -93.3 57.1 -95.6 65.4 -90C73.7 -84.4 76.4 -70.7 83.7 -60.8C91.1 -51 103.2 -45 109.1 -35.5C115.1 -26 114.9 -13 114.8 0L0 0Z" fill="#fa7268"></path></g></svg>